<?xml version="1.0" ?><!DOCTYPE svg  PUBLIC '-//W3C//DTD SVG 1.1//EN'  'http://www.w3.org/Graphics/SVG/1.1/DTD/svg11.dtd'><svg height="43.3492mm" style="shape-rendering:geometricPrecision; text-rendering:geometricPrecision; image-rendering:optimizeQuality; fill-rule:evenodd; clip-rule:evenodd" version="1.1" viewBox="0 0 4335 4335" width="43.3492mm" xml:space="preserve" xmlns="http://www.w3.org/2000/svg" xmlns:xlink="http://www.w3.org/1999/xlink"><defs><style type="text/css">
   <![CDATA[
    .fil0 {fill:#2B2A29}
   ]]>
  </style></defs><g id="Layer_x0020_1"><path class="fil0" d="M2151 711c795,0 1439,644 1439,1439 0,395 -159,752 -416,1012l295 352c72,86 61,214 -25,286l0 0c-86,72 -214,61 -286,-25l-308 -367c-207,115 -445,181 -699,181 -240,0 -466,-59 -665,-163l-293 349c-72,86 -201,97 -286,25l0 0c-86,-72 -97,-201 -25,-286l273 -325c-273,-262 -443,-630 -443,-1039 0,-795 644,-1439 1439,-1439zm1410 -185l0 0c-241,-202 -602,-174 -809,62l888 745c196,-244 162,-605 -80,-807zm-2803 0l0 0c241,-202 602,-174 809,62l-888 745c-196,-244 -162,-605 80,-807zm1401 642l0 0c65,0 119,53 119,119l0 745 488 0c65,0 119,53 119,119l0 0c0,65 -53,119 -119,119l-607 0 0 0c-65,0 -119,-53 -119,-119l0 0 0 -864c0,-65 53,-119 119,-119zm-8 -161c608,0 1143,535 1143,1143 0,608 -535,1143 -1143,1143 -608,0 -1143,-535 -1143,-1143 0,-608 535,-1143 1143,-1143z"/></g></svg>